HIERARCHY
ROOT root
{
	OFFSET 0.000000 0.000000 0.000000
	CHANNELS 6 Xposition Yposition Zposition Zrotation Yrotation Xrotation
	JOINT lhip
	{
		OFFSET 0.058581 -0.082280 -0.017664
		CHANNELS 3 Zrotation Yrotation Xrotation
		JOINT lknee
		{
			OFFSET 0.043451 -0.386469 0.008037
			CHANNELS 3 Zrotation Yrotation Xrotation
			JOINT lankle
			{
				OFFSET -0.014790 -0.426874 -0.037428
				CHANNELS 3 Zrotation Yrotation Xrotation
				JOINT ltoe
				{
					OFFSET 0.041054 -0.060286 0.122042
					CHANNELS 3 Zrotation Yrotation Xrotation
					End Site
					{
						OFFSET 0.000000 0.000000 0.000000
					}
				}
			}
		}
	}
	JOINT rhip
	{
		OFFSET -0.060310 -0.090513 -0.013543
		CHANNELS 3 Zrotation Yrotation Xrotation
		JOINT rknee
		{
			OFFSET -0.043257 -0.383688 -0.004843
			CHANNELS 3 Zrotation Yrotation Xrotation
			JOINT rankle
			{
				OFFSET 0.019056 -0.420046 -0.034562
				CHANNELS 3 Zrotation Yrotation Xrotation
				JOINT rtoe
				{
					OFFSET -0.034840 -0.062106 0.130323
					CHANNELS 3 Zrotation Yrotation Xrotation
					End Site
					{
						OFFSET 0.000000 0.000000 0.000000
					}
				}
			}
		}
	}
	JOINT lowerback
	{
		OFFSET 0.004439 0.124404 -0.038385
		CHANNELS 3 Zrotation Yrotation Xrotation
		JOINT upperback
		{
			OFFSET 0.004488 0.137956 0.026820
			CHANNELS 3 Zrotation Yrotation Xrotation
			JOINT chest
			{
				OFFSET -0.002265 0.056032 0.002855
				CHANNELS 3 Zrotation Yrotation Xrotation
				JOINT lowerneck
				{
					OFFSET -0.013390 0.211636 -0.033468
					CHANNELS 3 Zrotation Yrotation Xrotation
					JOINT upperneck
					{
						OFFSET 0.010113 0.088937 0.050410
						CHANNELS 3 Zrotation Yrotation Xrotation
						End Site
						{
							OFFSET 0.000000 0.000000 0.000000
						}
					}
				}
				JOINT lclavicle
				{
					OFFSET 0.071702 0.114000 -0.018898
					CHANNELS 3 Zrotation Yrotation Xrotation
					JOINT lshoulder
					{
						OFFSET 0.122921 0.045205 -0.019046
						CHANNELS 3 Zrotation Yrotation Xrotation
						JOINT lelbow
						{
							OFFSET 0.255332 -0.015649 -0.022946
							CHANNELS 3 Zrotation Yrotation Xrotation
							JOINT lwrist
							{
								OFFSET 0.265709 0.012698 -0.007375
								CHANNELS 3 Zrotation Yrotation Xrotation
								End Site
								{
									OFFSET 0.000000 0.000000 0.000000
								}
							}
						}
					}
				}
				JOINT rclavicle
				{
					OFFSET -0.082954 0.112472 -0.023707
					CHANNELS 3 Zrotation Yrotation Xrotation
					JOINT rshoulder
					{
						OFFSET -0.113228 0.046853 -0.008472
						CHANNELS 3 Zrotation Yrotation Xrotation
						JOINT relbow
						{
							OFFSET -0.260127 -0.014369 -0.031269
							CHANNELS 3 Zrotation Yrotation Xrotation
							JOINT rwrist
							{
								OFFSET -0.269108 0.006794 -0.006027
								CHANNELS 3 Zrotation Yrotation Xrotation
								End Site
								{
									OFFSET 0.000000 0.000000 0.000000
								}
							}
						}
					}
				}
			}
		}
	}
}
MOTION
Frames: 14
Frame Time: 0.033333
0.453131 0.185965 1.004537 92.629814 5.048303 102.384355 9.161660 3.436521 -15.389562 4.786895 10.709937 -2.872923 -9.204151 -5.232782 -0.778847 0.000000 -0.000000 0.000000 1.408528 2.245037 -21.447996 -6.490135 -11.942789 12.376873 5.596690 4.110076 -4.995937 0.000000 -0.000000 0.000000 0.208330 -0.580858 12.639892 4.358559 -6.568642 5.814232 7.496147 2.299329 -2.712623 -5.754317 1.196998 19.203519 7.368824 2.175953 -21.439074 24.094414 -28.067255 -24.126532 -69.247787 -56.303463 10.371798 110.931794 -43.032172 -64.580972 -5.507033 -4.724074 5.413013 -24.244604 24.902604 -14.520979 41.703818 45.263164 -10.454767 -114.248509 55.050232 -73.415517 32.019583 1.957211 -16.469064 
0.450696 0.183570 1.004316 93.297574 4.955623 103.708257 9.555350 2.578767 -17.059738 4.672581 10.826484 -2.938487 -9.790724 -4.987123 0.160958 0.000000 -0.000000 0.000000 1.501203 1.802183 -22.376989 -6.155442 -12.411854 11.152956 5.360008 4.035801 -4.303885 0.000000 -0.000000 0.000000 0.635056 -0.706175 13.436290 5.191695 -7.362022 4.567376 8.051580 2.287124 -2.084984 -6.595046 2.228884 18.924314 7.716633 1.015968 -22.503119 26.217251 -27.779212 -25.253716 -62.388721 -60.228790 4.311141 98.980164 -39.978648 -62.828719 -14.110657 -6.149269 -7.051552 -23.385927 24.652448 -13.566990 40.302597 46.673683 -10.033437 -115.651492 54.904986 -75.035532 24.050987 0.519806 -11.770158 
0.449984 0.180972 1.003830 93.186704 4.874610 104.519200 9.824843 2.260758 -17.615819 4.550230 10.418677 -3.673637 -10.025645 -3.916466 1.106433 0.000000 -0.000000 0.000000 1.895090 1.011493 -22.668014 -5.788704 -11.822604 9.541869 5.161062 3.997799 -3.503282 0.000000 -0.000000 0.000000 1.435195 -0.812194 15.119656 5.282610 -7.624326 2.367632 8.378639 2.682105 -1.386467 -7.515002 2.988157 19.043875 8.181753 0.781277 -23.315152 27.379299 -27.471273 -25.707318 -56.686781 -61.782783 0.009402 88.605024 -38.241036 -63.345914 -12.959179 -7.279355 -21.446907 -22.984266 24.879002 -12.530916 39.089515 47.691777 -9.223145 -114.677283 54.822839 -75.568369 5.833765 -0.647483 -7.864209 
0.450142 0.179180 1.003404 92.030160 4.710804 105.455942 9.862280 1.793745 -17.858805 4.566850 10.143270 -4.709068 -9.627211 -1.731609 1.977525 0.000000 -0.000000 0.000000 1.988465 0.830540 -23.359903 -5.389684 -10.389291 8.199550 5.278316 3.469207 -2.561535 0.000000 -0.000000 0.000000 2.005426 -0.660629 15.377759 4.909134 -6.798655 1.418591 8.508309 3.380072 -0.404333 -8.444769 2.393667 19.492684 8.691794 1.061380 -25.000098 27.516100 -26.423924 -25.083844 -57.613586 -61.968992 1.554373 87.269499 -39.361554 -68.204295 -4.156239 -5.505546 -34.140637 -23.038865 24.815703 -11.732480 36.297279 48.712019 -10.672202 -112.318512 55.017231 -73.505539 -11.969482 1.548440 -1.175572 
0.450993 0.177367 1.003160 90.476682 4.708524 105.971733 9.877262 1.985970 -17.799792 4.602275 10.272314 -5.168384 -9.090529 -0.308968 2.175593 0.000000 -0.000000 0.000000 2.128528 1.150217 -23.825132 -5.109328 -8.830675 7.391984 5.031592 2.954820 -2.084517 0.000000 -0.000000 0.000000 2.786230 -0.244140 15.186443 4.293125 -5.716032 2.432514 8.376872 3.828777 -0.465122 -9.217659 0.991446 19.240054 8.795883 1.958746 -25.951311 27.042127 -27.079391 -25.367627 -58.882233 -61.181292 2.671454 89.447716 -39.908268 -68.760377 -1.472490 -1.619710 -32.878261 -23.898158 26.187370 -12.007740 31.235240 48.511111 -15.308606 -107.601144 54.667088 -68.074022 -13.877557 2.190109 3.751792 
0.451861 0.176019 1.002904 88.729972 4.765498 105.848264 9.968477 2.015609 -16.929999 4.536847 10.839284 -5.797161 -8.663280 1.048217 2.391246 0.000000 -0.000000 0.000000 2.156037 1.658752 -23.746148 -4.879605 -7.760530 6.844986 5.126800 2.850414 -1.269764 0.000000 -0.000000 0.000000 3.573777 -0.029054 16.132322 3.547765 -4.468341 2.901958 8.065908 4.177923 -0.593261 -9.486724 0.379968 17.992681 8.578739 2.617100 -25.752957 26.711669 -26.673215 -25.481013 -61.377311 -60.575670 5.027299 90.434066 -39.829319 -70.577078 -0.632291 -0.689614 -36.723344 -25.329419 26.382871 -13.345608 27.797358 49.577318 -18.198204 -97.233227 53.879385 -58.613433 -11.107252 0.941934 5.979878 
0.453550 0.174352 1.003113 87.979738 4.315011 106.284796 9.629513 2.064214 -17.404141 4.474085 11.522995 -5.348978 -8.145665 0.821502 2.512570 0.000000 -0.000000 0.000000 1.831362 1.262517 -24.036199 -4.648570 -7.534377 6.293720 5.215844 3.434807 -0.623017 0.000000 -0.000000 0.000000 3.642149 -0.102071 16.371249 3.220605 -4.052254 3.056284 7.962952 4.314125 -0.790483 -10.102110 -0.735969 17.079605 8.715272 3.878898 -25.735708 26.527690 -26.333499 -25.301813 -64.769843 -59.196991 8.999924 92.903650 -39.454317 -73.715254 -0.488975 -0.093189 -39.570270 -27.099882 26.661918 -15.070404 26.406225 50.211540 -19.487434 -89.649368 51.320354 -55.729755 2.376996 -3.314473 -1.339818 
0.454486 0.172884 1.003047 87.695442 3.937464 106.953754 9.040543 3.169598 -18.607660 4.526676 11.084991 -4.490923 -8.212474 0.056879 2.472670 0.000000 -0.000000 0.000000 1.570991 1.031989 -24.659563 -4.487245 -7.647724 5.909241 5.053935 3.778007 -0.136340 0.000000 -0.000000 0.000000 3.718210 -0.212590 16.078798 3.214534 -3.986603 3.910833 7.960842 3.756407 -1.552026 -11.040762 -1.694350 16.454339 8.452342 5.203730 -25.998261 26.690992 -26.785969 -25.747781 -65.400256 -56.565218 10.702544 95.220168 -39.743522 -73.312398 3.497662 3.074867 -36.235732 -29.673085 27.988117 -16.448937 26.713425 49.556005 -20.475308 -86.234420 48.981820 -63.258199 14.885154 0.012271 -28.400830 
0.457122 0.171660 1.004110 88.214633 3.657679 107.245847 8.492206 3.960307 -19.079586 4.635347 9.756607 -4.278619 -8.372136 -0.062346 2.632902 0.000000 -0.000000 0.000000 1.567072 0.566975 -24.491705 -4.459170 -7.536848 5.400684 5.133278 3.410149 0.207402 0.000000 -0.000000 0.000000 3.967009 -0.431390 17.384226 3.036082 -4.001166 1.663415 8.243231 3.398620 -0.390168 -10.609225 -2.123523 15.007124 8.105879 5.920026 -27.051112 26.625029 -26.586615 -25.667614 -67.691831 -56.819382 13.284104 95.244510 -40.854514 -73.586009 8.718463 6.567896 -35.653236 -29.477471 26.329877 -17.059684 32.458227 49.880182 -14.578199 -90.233145 50.492493 -73.993426 8.789747 -0.382991 -44.202623 
0.459718 0.170427 1.004658 88.603375 3.483531 107.469280 8.392970 3.749576 -19.047446 4.607162 9.393810 -4.650724 -8.032108 0.035294 3.048355 0.000000 -0.000000 0.000000 1.408918 0.502917 -24.352942 -4.337840 -7.724400 5.166082 4.929187 3.269429 0.345478 0.000000 -0.000000 0.000000 3.866666 -0.648717 17.621284 3.525736 -4.564941 1.723799 8.527362 3.195599 -0.172814 -11.161018 -1.664014 13.338709 8.020393 6.180308 -28.168432 26.929664 -26.279171 -25.939558 -69.850864 -56.426765 15.227609 97.224549 -41.748134 -76.448821 13.599916 10.620281 -35.615070 -28.506297 26.311279 -17.177240 37.661069 50.678789 -9.503712 -99.161014 52.333759 -80.200545 5.147502 -2.739586 -39.736997 
0.462495 0.169245 1.004588 88.323489 3.619325 107.334812 8.277134 4.398197 -18.604186 4.717050 8.948623 -4.861642 -8.039734 0.285745 3.171658 0.000000 -0.000000 0.000000 1.651165 0.634666 -23.991308 -4.365602 -7.273367 5.023664 4.596738 3.094865 0.470274 0.000000 -0.000000 0.000000 3.806218 -0.943409 18.476429 3.671412 -4.723596 1.154811 8.961978 2.985666 0.713113 -11.792335 -1.208765 11.496499 7.781589 6.704841 -29.673874 27.143763 -25.931128 -26.701571 -72.971066 -55.008969 17.912124 104.173095 -44.724830 -81.513385 22.940373 15.049761 -30.954913 -27.749763 26.792175 -17.239541 45.240162 51.798214 -2.732402 -112.635846 52.357632 -93.745629 -7.218991 -9.312986 -39.036813 
0.464657 0.168156 1.004363 87.550600 3.750913 107.984237 8.439886 3.933058 -18.739988 4.814042 10.184390 -5.154296 -7.593560 0.633591 3.318234 0.000000 -0.000000 0.000000 1.732273 1.080287 -24.757422 -4.476018 -7.403414 5.289113 4.466629 3.621155 0.408171 0.000000 -0.000000 0.000000 3.647197 -1.044289 18.230326 3.676443 -4.675340 1.718405 9.153853 3.245464 0.707439 -12.401771 -1.225359 9.393248 7.598139 7.044389 -31.436504 26.849912 -25.480685 -27.148039 -77.934807 -53.323714 22.512762 116.629502 -45.267735 -93.069068 25.079205 18.742601 -32.140362 -27.046206 28.409454 -17.074346 51.589755 52.619991 3.886773 -125.235870 48.583687 -104.718103 -16.803252 -14.370698 -33.280318 
0.466127 0.167599 1.004164 86.563469 3.906914 108.528622 8.469909 3.860075 -19.026075 5.027353 11.546020 -4.924552 -7.455113 0.319400 3.015199 0.000000 -0.000000 0.000000 1.808558 1.338915 -25.582314 -4.632881 -7.774020 5.777139 4.491997 4.952730 0.318110 0.000000 -0.000000 0.000000 3.304681 -0.836040 18.145209 3.795281 -4.537463 2.227109 9.329144 3.511203 0.509159 -12.294763 -0.656304 7.348171 7.377449 6.738455 -32.871150 26.658855 -24.893391 -27.158487 -82.532261 -51.859750 25.674117 129.435109 -44.874049 -102.455800 24.713284 19.598156 -33.062442 -25.861601 29.416413 -16.909396 58.593270 53.936820 9.128287 -135.580513 44.676055 -112.278068 -19.052854 -14.912291 -33.151521 
0.467795 0.167355 1.004358 85.617190 4.039169 108.995890 8.430829 3.997075 -19.085752 5.162232 12.633177 -4.969790 -7.445974 0.025885 2.849345 0.000000 -0.000000 0.000000 1.886765 1.485798 -26.166253 -4.818992 -8.068355 5.982897 4.825704 6.276869 0.241379 0.000000 -0.000000 0.000000 3.282176 -0.910665 19.084755 3.499703 -4.124899 -0.046712 9.475124 3.871927 1.517486 -12.126312 -0.221721 6.212913 7.401648 6.865041 -34.072085 26.330586 -23.775649 -27.027930 -86.995417 -50.306607 28.944390 140.151073 -44.357951 -110.077047 27.602675 19.480626 -29.723895 -25.121242 29.236671 -16.919825 65.409053 53.841905 15.466705 -145.827265 42.600333 -119.783807 -26.672568 -15.549923 -27.755743 
